#N canvas 0 23 1920 1035 12;
#X obj 542 1391 dac~;
#X obj 123 176 loadbang;
#X floatatom 123 234 5 0 0 0 - - -;
#X obj 105 303 /;
#X obj 35 176 loadbang;
#X msg 35 204 60000;
#X floatatom 105 331 5 0 0 0 - - -;
#X obj 105 262 bng 15 250 50 0 empty empty empty 17 7 0 10 -262144
-1 -1;
#X obj 105 360 send 4th_time;
#X text 89 144 BPM;
#X floatatom 1150 878 5 0 0 0 - - -;
#X obj 1012 1783 vsl 15 128 0 127 0 0 empty empty empty 0 -9 0 10 -262144
-1 -1 0 1;
#X obj 985 1813 hsl 128 15 0 127 0 0 empty empty empty -2 -8 0 10 -262144
-1 -1 0 1;
#X text 319 725 C;
#X obj 662 270 bng 15 250 50 0 empty empty empty 17 7 0 10 -262144
-1 -1;
#X obj 663 330 int 1;
#X obj 733 370 + 1;
#X floatatom 663 371 5 0 0 0 - - -;
#X floatatom 661 515 5 0 0 0 - - -;
#X msg 592 296 -1;
#X text 541 267 Reset;
#X obj 592 270 bng 15 250 50 0 empty empty empty 17 7 0 10 -262144
-1 -1;
#X obj 662 235 metro;
#X floatatom 705 206 5 0 0 0 - - -;
#X obj 654 557 sel 1;
#X obj 792 557 sel 2;
#X obj 926 557 sel 3;
#X obj 1068 558 sel 4;
#X obj 592 235 sel 0;
#X obj 662 198 tgl 25 0 empty empty empty 17 7 0 10 -262144 -1 -1 0
1;
#X obj 661 468 + 1;
#X obj 517 233 loadbang;
#X floatatom 1150 803 5 0 0 0 - - -;
#X msg 654 746 7;
#X obj 654 587 bng 25 250 50 0 empty empty empty 17 7 0 10 -262144
-4032 -1;
#X msg 814 704 set \$1;
#X obj 814 653 bng 15 250 50 0 empty empty empty 17 7 0 10 -262144
-1 -1;
#X obj 792 588 bng 25 250 50 0 empty empty empty 17 7 0 10 -262144
-4032 -1;
#X obj 926 588 bng 25 250 50 0 empty empty empty 17 7 0 10 -262144
-4032 -1;
#X msg 1066 750 0;
#X msg 1086 702 set \$1;
#X obj 1086 653 bng 15 250 50 0 empty empty empty 17 7 0 10 -262144
-1 -1;
#X obj 1068 589 bng 25 250 50 0 empty empty empty 17 7 0 10 -262144
-4032 -1;
#X obj 114 745 s New_Pattern;
#X obj 662 150 r ON;
#X obj 705 150 r 4th_time;
#X obj 814 624 r New_Pattern;
#X obj 1086 621 r New_Pattern;
#X msg 792 747 1;
#X msg 926 747 4;
#X obj 1150 845 Melody;
#X obj 221 62 tgl 25 0 empty empty empty 17 7 0 10 -262144 -1 -1 0
1;
#X obj 221 99 send ON;
#X msg 676 702 set \$1;
#X obj 676 651 bng 15 250 50 0 empty empty empty 17 7 0 10 -262144
-1 -1;
#X obj 676 622 r New_Pattern;
#X obj 676 675 random 8;
#X obj 814 677 random 8;
#X msg 947 702 set \$1;
#X obj 947 652 bng 15 250 50 0 empty empty empty 17 7 0 10 -262144
-1 -1;
#X obj 947 622 r New_Pattern;
#X obj 947 675 random 8;
#X obj 1086 675 random 8;
#X floatatom 114 621 5 0 0 0 - - -;
#X obj 114 590 + 1;
#X obj 114 713 bng 25 250 50 0 empty empty empty 17 7 0 10 -262144
-4032 -1;
#X obj 39 618 r ON;
#X obj 39 650 sel 0;
#X obj 191 591 r 4th_time;
#X obj 114 684 del;
#X obj 90 674 bng 15 250 50 0 empty empty empty 17 7 0 10 -262144 -1
-1;
#X floatatom 191 651 5 0 0 0 - - -;
#X obj 661 428 % 5;
#X msg 1207 750 3;
#X msg 1227 702 set \$1;
#X obj 1227 653 bng 15 250 50 0 empty empty empty 17 7 0 10 -262144
-1 -1;
#X obj 1209 589 bng 25 250 50 0 empty empty empty 17 7 0 10 -262144
-4032 -1;
#X obj 1227 621 r New_Pattern;
#X obj 1227 675 random 8;
#X obj 1209 558 sel 5;
#X obj 114 560 % 20;
#X obj 114 650 sel 20;
#X obj 307 558 sel 1;
#X obj 358 558 sel 2;
#X obj 408 558 sel 3;
#X obj 456 558 sel 4;
#X obj 307 588 bng 25 250 50 0 empty empty empty 17 7 0 10 -262144
-4032 -1;
#X obj 358 589 bng 25 250 50 0 empty empty empty 17 7 0 10 -262144
-4032 -1;
#X obj 408 589 bng 25 250 50 0 empty empty empty 17 7 0 10 -262144
-4032 -1;
#X obj 456 589 bng 25 250 50 0 empty empty empty 17 7 0 10 -262144
-4032 -1;
#X floatatom 608 514 5 0 0 0 - - -;
#X obj 608 468 + 1;
#X msg 358 748 53;
#X msg 408 748 55;
#X text 370 724 F;
#X text 420 725 G;
#X text 1151 479 Melody;
#X obj 445 843 - 12;
#X obj 705 177 / 1;
#X msg 123 204 245;
#X obj 608 428 % 4;
#X msg 307 748 48;
#X msg 456 749 46;
#X text 468 726 Bb;
#X msg 1340 748 7;
#X msg 1360 700 set \$1;
#X obj 1360 651 bng 15 250 50 0 empty empty empty 17 7 0 10 -262144
-1 -1;
#X obj 1342 587 bng 25 250 50 0 empty empty empty 17 7 0 10 -262144
-4032 -1;
#X obj 1360 619 r New_Pattern;
#X obj 1360 673 random 8;
#X msg 1481 748 6;
#X msg 1501 700 set \$1;
#X obj 1501 651 bng 15 250 50 0 empty empty empty 17 7 0 10 -262144
-1 -1;
#X obj 1483 587 bng 25 250 50 0 empty empty empty 17 7 0 10 -262144
-4032 -1;
#X obj 1501 619 r New_Pattern;
#X obj 1501 673 random 8;
#X obj 1342 556 sel 6;
#X obj 1483 556 sel 7;
#X text 880 11 Generative Polymeter;
#X msg 1617 746 5;
#X msg 1637 698 set \$1;
#X obj 1637 649 bng 15 250 50 0 empty empty empty 17 7 0 10 -262144
-1 -1;
#X obj 1619 585 bng 25 250 50 0 empty empty empty 17 7 0 10 -262144
-4032 -1;
#X obj 1637 617 r New_Pattern;
#X obj 1637 671 random 8;
#X msg 1758 746 2;
#X msg 1778 698 set \$1;
#X obj 1778 649 bng 15 250 50 0 empty empty empty 17 7 0 10 -262144
-1 -1;
#X obj 1760 585 bng 25 250 50 0 empty empty empty 17 7 0 10 -262144
-4032 -1;
#X obj 1778 617 r New_Pattern;
#X obj 1778 671 random 8;
#X obj 1619 554 sel 8;
#X obj 1760 554 sel 9;
#X text 321 141 Melody Time signature;
#X obj 357 170 loadbang;
#X msg 357 199 5;
#X obj 357 266 s melody_time_sig;
#X obj 776 343 r melody_time_sig;
#X floatatom 776 372 5 0 0 0 - - -;
#X obj 153 475 * 4;
#X obj 153 447 r melody_time_sig;
#X floatatom 153 511 5 0 0 0 - - -;
#X floatatom 357 230 5 0 0 0 - - -;
#X text 255 228 Change here >;
#X obj 444 1015 phasor~ 440;
#X obj 445 916 mtof;
#X obj 444 1126 vcf~ 440;
#X obj 536 1060 loadbang;
#X floatatom 444 975 5 0 0 0 - - -;
#X obj 471 1060 loadbang;
#X msg 536 1088 5;
#X msg 471 1088 500;
#X obj 775 305 s note_on;
#X obj 605 981 r note_on;
#X obj 684 982 r 4th_time;
#X floatatom 684 1042 5 0 0 0 - - -;
#X obj 684 1011 - 50;
#X obj 652 1080 delay;
#X obj 605 1011 bng 15 250 50 0 empty empty empty 17 7 0 10 -262144
-1 -1;
#X obj 605 1161 line;
#X msg 605 1117 1 10;
#X floatatom 605 1190 5 0 0 0 - - -;
#X msg 652 1117 0 200;
#X obj 543 1224 *~;
#X obj 1150 1008 phasor~ 440;
#X obj 1150 1119 vcf~ 440;
#X obj 1242 1053 loadbang;
#X floatatom 1150 968 5 0 0 0 - - -;
#X obj 1177 1053 loadbang;
#X obj 1311 974 r note_on;
#X obj 1390 975 r 4th_time;
#X floatatom 1390 1035 5 0 0 0 - - -;
#X obj 1390 1004 - 50;
#X obj 1358 1073 delay;
#X obj 1311 1004 bng 15 250 50 0 empty empty empty 17 7 0 10 -262144
-1 -1;
#X obj 1311 1154 line;
#X floatatom 1311 1183 5 0 0 0 - - -;
#X obj 1249 1217 *~;
#X obj 1150 909 mtof;
#X obj 542 1305 *~ 1;
#X obj 1059 1003 * 1.01;
#X obj 1059 1032 phasor~ 440;
#X obj 1059 1068 *~ 0.3;
#X msg 1311 1110 1 5;
#X msg 1358 1111 0 100;
#X obj 542 1340 clip~ -0.9 0.9;
#X obj 543 1259 *~ 0.9;
#X obj 1150 939 * 2;
#X msg 1242 1081 5;
#X obj 444 1164 clip~ -0.5 0.5;
#X obj 611 1261 *~ 0.4;
#X text 1027 506 Goes up to 9/4. You can of course add more!;
#X text 163 34 Turn sequencer on/off;
#X obj 191 620 - 10;
#X text 381 517 4/4 Bass;
#X text 548 939 Bass Synth;
#X text 1261 937 Melody Synth;
#X text 636 37 This patcher is purposely bare-bone so customize further
according to your style!, f 89;
#X text 112 421 Pattern Generator Clock;
#X msg 1177 1081 1500;
#X connect 1 0 99 0;
#X connect 2 0 3 1;
#X connect 2 0 7 0;
#X connect 3 0 6 0;
#X connect 4 0 5 0;
#X connect 5 0 3 0;
#X connect 6 0 8 0;
#X connect 7 0 3 0;
#X connect 10 0 178 0;
#X connect 14 0 15 0;
#X connect 14 0 152 0;
#X connect 15 0 16 0;
#X connect 15 0 17 0;
#X connect 16 0 15 1;
#X connect 17 0 72 0;
#X connect 17 0 100 0;
#X connect 17 0 80 0;
#X connect 18 0 24 0;
#X connect 18 0 25 0;
#X connect 18 0 26 0;
#X connect 18 0 27 0;
#X connect 18 0 79 0;
#X connect 18 0 116 0;
#X connect 18 0 117 0;
#X connect 18 0 131 0;
#X connect 18 0 132 0;
#X connect 19 0 15 0;
#X connect 21 0 19 0;
#X connect 22 0 14 0;
#X connect 23 0 22 1;
#X connect 24 0 34 0;
#X connect 25 0 37 0;
#X connect 26 0 38 0;
#X connect 27 0 42 0;
#X connect 28 0 21 0;
#X connect 29 0 22 0;
#X connect 29 0 28 0;
#X connect 30 0 18 0;
#X connect 31 0 21 0;
#X connect 32 0 50 0;
#X connect 33 0 32 0;
#X connect 34 0 33 0;
#X connect 35 0 48 0;
#X connect 36 0 57 0;
#X connect 37 0 48 0;
#X connect 38 0 49 0;
#X connect 39 0 32 0;
#X connect 40 0 39 0;
#X connect 41 0 62 0;
#X connect 42 0 39 0;
#X connect 44 0 29 0;
#X connect 45 0 98 0;
#X connect 46 0 36 0;
#X connect 47 0 41 0;
#X connect 48 0 32 0;
#X connect 49 0 32 0;
#X connect 50 0 10 0;
#X connect 51 0 52 0;
#X connect 53 0 33 0;
#X connect 54 0 56 0;
#X connect 55 0 54 0;
#X connect 56 0 53 0;
#X connect 57 0 35 0;
#X connect 58 0 49 0;
#X connect 59 0 61 0;
#X connect 60 0 59 0;
#X connect 61 0 58 0;
#X connect 62 0 40 0;
#X connect 63 0 81 0;
#X connect 64 0 63 0;
#X connect 65 0 43 0;
#X connect 66 0 67 0;
#X connect 67 0 65 0;
#X connect 68 0 193 0;
#X connect 69 0 65 0;
#X connect 71 0 69 1;
#X connect 72 0 30 0;
#X connect 73 0 32 0;
#X connect 74 0 73 0;
#X connect 75 0 78 0;
#X connect 76 0 73 0;
#X connect 77 0 75 0;
#X connect 78 0 74 0;
#X connect 79 0 76 0;
#X connect 80 0 64 0;
#X connect 81 0 69 0;
#X connect 81 0 70 0;
#X connect 82 0 86 0;
#X connect 83 0 87 0;
#X connect 84 0 88 0;
#X connect 85 0 89 0;
#X connect 86 0 101 0;
#X connect 87 0 92 0;
#X connect 88 0 93 0;
#X connect 89 0 102 0;
#X connect 90 0 82 0;
#X connect 90 0 83 0;
#X connect 90 0 84 0;
#X connect 90 0 85 0;
#X connect 91 0 90 0;
#X connect 92 0 97 0;
#X connect 93 0 97 0;
#X connect 97 0 145 0;
#X connect 98 0 23 0;
#X connect 99 0 2 0;
#X connect 100 0 91 0;
#X connect 101 0 97 0;
#X connect 102 0 97 0;
#X connect 104 0 32 0;
#X connect 105 0 104 0;
#X connect 106 0 109 0;
#X connect 107 0 104 0;
#X connect 108 0 106 0;
#X connect 109 0 105 0;
#X connect 110 0 32 0;
#X connect 111 0 110 0;
#X connect 112 0 115 0;
#X connect 113 0 110 0;
#X connect 114 0 112 0;
#X connect 115 0 111 0;
#X connect 116 0 107 0;
#X connect 117 0 113 0;
#X connect 119 0 32 0;
#X connect 120 0 119 0;
#X connect 121 0 124 0;
#X connect 122 0 119 0;
#X connect 123 0 121 0;
#X connect 124 0 120 0;
#X connect 125 0 32 0;
#X connect 126 0 125 0;
#X connect 127 0 130 0;
#X connect 128 0 125 0;
#X connect 129 0 127 0;
#X connect 130 0 126 0;
#X connect 131 0 122 0;
#X connect 132 0 128 0;
#X connect 134 0 135 0;
#X connect 135 0 142 0;
#X connect 137 0 138 0;
#X connect 138 0 72 1;
#X connect 139 0 141 0;
#X connect 140 0 139 0;
#X connect 141 0 80 1;
#X connect 141 0 81 1;
#X connect 142 0 136 0;
#X connect 144 0 146 0;
#X connect 145 0 148 0;
#X connect 146 0 189 0;
#X connect 147 0 150 0;
#X connect 148 0 144 0;
#X connect 149 0 151 0;
#X connect 150 0 146 2;
#X connect 151 0 146 1;
#X connect 153 0 158 0;
#X connect 154 0 156 0;
#X connect 155 0 157 1;
#X connect 156 0 155 0;
#X connect 157 0 162 0;
#X connect 158 0 157 0;
#X connect 158 0 160 0;
#X connect 159 0 161 0;
#X connect 160 0 159 0;
#X connect 161 0 163 1;
#X connect 162 0 159 0;
#X connect 163 0 186 0;
#X connect 164 0 165 0;
#X connect 165 0 177 0;
#X connect 166 0 188 0;
#X connect 167 0 164 0;
#X connect 167 0 180 0;
#X connect 168 0 199 0;
#X connect 169 0 174 0;
#X connect 170 0 172 0;
#X connect 171 0 173 1;
#X connect 172 0 171 0;
#X connect 173 0 184 0;
#X connect 174 0 173 0;
#X connect 174 0 183 0;
#X connect 175 0 176 0;
#X connect 176 0 177 1;
#X connect 177 0 190 0;
#X connect 178 0 187 0;
#X connect 179 0 185 0;
#X connect 180 0 181 0;
#X connect 181 0 182 0;
#X connect 182 0 165 0;
#X connect 183 0 175 0;
#X connect 184 0 175 0;
#X connect 185 0 0 0;
#X connect 185 0 0 1;
#X connect 186 0 179 0;
#X connect 187 0 167 0;
#X connect 188 0 165 2;
#X connect 189 0 163 0;
#X connect 190 0 179 0;
#X connect 193 0 71 0;
#X connect 199 0 165 1;
